<?xml version="1.0" encoding="utf-8"?>
<!-- Generator: Adobe Illustrator 24.1.2, SVG Export Plug-In . SVG Version: 6.00 Build 0)  -->
<svg version="1.1" id="Capa_1" xmlns="http://www.w3.org/2000/svg" xmlns:xlink="http://www.w3.org/1999/xlink" x="0px" y="0px"
	 viewBox="0 0 1066.6 220.6" style="enable-background:new 0 0 1066.6 220.6;" xml:space="preserve">
<style type="text/css">
	.st0{fill:#FFFFFF;}
	.st1{fill-rule:evenodd;clip-rule:evenodd;fill:#FF671D;stroke:#FF671D;stroke-miterlimit:10;}
</style>
<path class="st0" d="M550.5,77.7c0-3.4,0.7-6.8,2.1-9.9c1.5-3.2,3.6-6.1,6.2-8.5c2.6-2.4,5.7-4.3,9-5.5c6.9-2.6,14.5-2.6,21.3,0
	c3.3,1.3,6.4,3.1,9,5.5c2.6,2.4,4.7,5.2,6.1,8.4c2.8,6.4,2.8,13.6,0,20c-1.4,3.2-3.5,6.1-6.1,8.4c-2.6,2.4-5.7,4.3-9,5.6
	c-6.9,2.5-14.5,2.5-21.3,0c-3.3-1.3-6.4-3.2-9-5.6c-2.6-2.4-4.7-5.3-6.2-8.5C551.2,84.5,550.5,81.1,550.5,77.7L550.5,77.7z
	 M555.5,77.6c-0.1,5.9,2.3,11.6,6.7,15.6c9.2,8.5,23.3,8.5,32.5,0c8.6-8.2,8.9-21.8,0.7-30.4c-0.2-0.2-0.5-0.5-0.7-0.7
	c-9.2-8.4-23.3-8.4-32.5,0C557.8,66.1,555.4,71.7,555.5,77.6L555.5,77.6z"/>
<path class="st0" d="M753.5,102.6V80.2c0-7.5-2.1-13.5-6.2-17.9s-9.7-6.6-16.6-6.6c-6.1-0.2-12,2.1-16.4,6.3
	c-4.3,4-6.7,9.7-6.6,15.6c-0.2,5.9,2.2,11.6,6.5,15.7c4.3,4.1,9.8,6.2,16.4,6.2c3.5,0,7-0.7,10.3-2.1c3.3-1.5,6.3-3.6,8.9-6.3v5.7
	c-2.6,2.2-5.7,3.9-8.9,5.1c-3.3,1.1-6.8,1.7-10.3,1.7c-3.8,0-7.6-0.6-11.1-1.9c-6.6-2.5-12-7.5-14.8-14c-1.3-3.1-2-6.5-2-9.9
	c-0.2-7,2.6-13.8,7.8-18.6c5.2-4.9,11.9-7.3,19.9-7.3c4.8,0,9.5,1.1,13.7,3.2c4.2,2.1,7.7,5.3,10.3,9.2c1.4,2.1,2.4,4.5,2.9,7
	c0.7,3.1,1,6.2,0.9,9.4v22.1L753.5,102.6z"/>
<path class="st0" d="M653.4,102.6V28.7h4.7v32.8c2-3.1,4.8-5.6,8.1-7.3c3.3-1.7,7-2.6,10.8-2.6c6.6,0,11.8,2,15.7,6
	c3.9,4,5.8,9.4,5.8,16.2v28.7h-4.7V73c0.2-4.6-1.5-9.1-4.7-12.4c-3.2-3.2-7.5-5-12-4.8c-5.1-0.2-10,1.9-13.5,5.5
	c-3.5,3.7-5.3,8.4-5.3,14.1v27.1H653.4z"/>
<path class="st0" d="M646.1,56.6H641c-7.8,0-14.2,2-19.1,5.8c-8.4,6.6-9.8,18.7-3.2,27.1c0.9,1.2,2,2.3,3.2,3.2
	c4.9,3.9,11.3,5.8,19.1,5.8h5.2v3.9h-4.2c-10,0-17.9-2.3-23.8-6.8c-5.7-4.3-9-11-8.8-18.2c0-4.1,1.1-8.1,3.1-11.6
	c2.2-3.7,5.3-6.7,9-8.9c2.7-1.6,5.6-2.8,8.6-3.5c3.9-0.8,7.9-1.2,11.8-1.1h4.2L646.1,56.6z"/>
<path class="st0" d="M524.8,102.6V52.7h4.7v9.7c2-3.1,4.9-5.7,8.2-7.4c3.4-1.7,7.2-2.6,11.1-2.5c0.4,0,0.8,0,1.3,0s1.2,0.1,2,0.2V57
	c-0.1,0-0.2,0-0.4,0c-1.8-0.1-3-0.2-3.6-0.2c-5-0.2-9.9,1.8-13.4,5.5c-3.5,3.6-5.3,8.3-5.3,14v26.4L524.8,102.6z"/>
<path class="st0" d="M449.5,77.7c0-3.4,0.7-6.8,2.1-9.9c1.5-3.2,3.6-6.1,6.2-8.5c2.6-2.4,5.7-4.3,9-5.5c6.9-2.6,14.5-2.6,21.4,0
	c3.3,1.3,6.4,3.1,9,5.5c2.6,2.4,4.7,5.2,6.1,8.4c2.8,6.4,2.8,13.6,0,20c-1.4,3.2-3.5,6.1-6.1,8.4c-2.6,2.4-5.7,4.3-9,5.6
	c-6.9,2.5-14.5,2.5-21.4,0c-3.3-1.3-6.4-3.2-9-5.6c-2.6-2.4-4.7-5.3-6.2-8.5C450.2,84.5,449.5,81.1,449.5,77.7z M454.5,77.6
	c-0.1,5.9,2.3,11.6,6.7,15.6c4.4,4.2,10.3,6.5,16.3,6.3c6,0.1,11.9-2.2,16.2-6.4c8.6-8.2,8.9-21.8,0.7-30.3
	c-0.2-0.2-0.5-0.5-0.7-0.7c-9.2-8.4-23.3-8.4-32.5,0C456.9,66,454.5,71.7,454.5,77.6L454.5,77.6z"/>
<path class="st0" d="M438.6,38.7c0-0.8,0.4-1.6,1-2.2c0.7-0.6,1.5-0.9,2.4-0.9c0.9,0,1.8,0.3,2.5,0.9c0.6,0.5,1,1.3,1,2.2
	c0,0.9-0.4,1.7-1,2.2c-0.7,0.6-1.6,0.9-2.5,0.9c-0.9,0-1.7-0.3-2.4-0.9C439,40.3,438.6,39.5,438.6,38.7z"/>
<path class="st0" d="M1059.6,104.6c0-0.8,0.4-1.6,1-2.2c0.7-0.6,1.5-0.9,2.4-0.9c0.9,0,1.8,0.3,2.5,0.9c0.6,0.5,1,1.3,1,2.2
	c0,0.9-0.4,1.7-1,2.2c-0.7,0.6-1.6,1-2.5,0.9c-0.9,0-1.7-0.3-2.4-0.9C1060,106.3,1059.6,105.5,1059.6,104.6z"/>
<rect x="439.6" y="52.7" class="st0" width="4.8" height="49.9"/>
<path class="st0" d="M426.7,28.7h4.8v46.1c0,3.2-0.3,6.3-0.9,9.4c-0.5,2.5-1.5,4.9-2.9,7c-2.6,3.9-6.2,7-10.3,9.1
	c-4.3,2.1-9,3.2-13.8,3.2c-8,0-14.6-2.4-19.9-7.3c-5.2-4.7-8.1-11.5-7.9-18.5c0-3.4,0.7-6.8,2-9.9c1.4-3.2,3.3-6,5.8-8.4
	c2.6-2.5,5.6-4.4,9-5.7c3.6-1.3,7.3-2,11.1-1.9c3.5,0,6.9,0.6,10.2,1.8c3.3,1.2,6.3,2.9,9,5.1v5.7c-2.5-2.7-5.5-4.8-8.9-6.3
	c-3.2-1.4-6.7-2.1-10.3-2.1c-6.7,0-12.1,2.1-16.4,6.2c-4.3,4.1-6.7,9.8-6.5,15.7c-0.1,5.9,2.3,11.6,6.6,15.6
	c4.4,4.2,10.3,6.4,16.4,6.3c6.9,0,12.5-2.2,16.6-6.6s6.2-10.4,6.2-17.9L426.7,28.7z"/>
<path class="st0" d="M366.7,52.7h4.8v28.2c0,6.9-2,12.4-6.1,16.5s-9.5,6.1-16.3,6.1c-6.8,0-12.3-2-16.4-6.1s-6.1-9.6-6.1-16.5V52.7
	h4.7v29.6c-0.2,4.7,1.7,9.2,5,12.5c3.3,3.2,7.6,4.8,12.8,4.8s9.5-1.6,12.8-4.8c3.3-3.3,5.1-7.8,4.9-12.5L366.7,52.7z"/>
<path class="st0" d="M298.5,38.6h4.8v14.1h19.6v4.1h-19.6v27.9c0,4.8,1.3,8.3,3.9,10.5s6.7,3.3,12.3,3.3h3.3v4h-2.5
	c-7.3,0-12.8-1.5-16.5-4.4c-3.6-2.8-5.4-7.2-5.4-13V38.6z"/>
<path class="st0" d="M251.6,98.5h24c4.2,0,7.5-0.7,9.8-2.2c2.2-1.3,3.5-3.6,3.5-6.1c0-2.4-1.1-4.7-3-6.2c-2-1.7-5.2-3-9.6-4.1
	l-10.8-2.7c-4.7-1.2-8.2-2.8-10.4-4.9c-2.2-2-3.5-4.9-3.4-7.9c-0.1-3.5,1.6-6.8,4.5-8.6c3-2,7.3-3,12.9-3h20.4v4h-22.1
	c-3.6,0-6.3,0.7-8.1,2c-1.9,1.3-2.9,3.5-2.8,5.8c0,2.1,1,4,2.7,5.2c1.8,1.4,4.6,2.6,8.5,3.6l11.1,2.8c4.8,1.2,8.5,3,11,5.3
	c2.4,2.1,3.8,5.2,3.8,8.4c0.2,4-1.8,7.7-5.3,9.6c-3.5,2.1-8.9,3.2-16.3,3.2h-20.5V98.5z"/>
<path class="st0" d="M250.4,78.3c-0.2,7-3.3,13.6-8.5,18.2c-5.2,4.7-11.7,7-19.3,7c-3.6,0-7.3-0.6-10.7-1.9c-3.3-1.3-6.4-3.2-9-5.6
	c-2.6-2.4-4.7-5.2-6.2-8.4c-2.8-6.3-2.8-13.6,0-19.9c1.5-3.2,3.6-6.1,6.2-8.5c2.6-2.4,5.7-4.3,9.1-5.6c3.5-1.3,7.2-1.9,10.9-1.9
	c4.7-0.1,9.3,1,13.5,3.2c4.1,2.2,7.6,5.4,10.1,9.3l-38.6,23.3l-2.3-3.4l34.2-20.6c-2-2.5-4.6-4.5-7.5-5.9c-3-1.4-6.3-2-9.6-2
	c-6.1-0.1-12,2.1-16.4,6.4c-8.6,8.2-9,21.7-0.8,30.4c0.3,0.3,0.5,0.5,0.8,0.8c4.4,4.2,10.3,6.5,16.3,6.3c5.8,0.2,11.5-1.9,15.8-5.9
	c4.3-4,6.8-9.5,7-15.3L250.4,78.3z"/>
<path class="st0" d="M786.3,59.4c0-3.2,1.5-5.9,4.7-8.2c3.2-2.3,7.2-3.5,11.2-3.4c4.8,0,8.6,1,11.5,2.9c2.7,1.6,4.4,4.5,4.3,7.7
	c-0.1,3.3-1.5,6.5-3.9,8.8c-2.2,2.4-5.8,5-10.8,7.9l19,18.3l0.8-2.9c0.8-3.9,1.1-8,0.8-12h5.9c0.3,4.2-0.1,8.5-1.2,12.6
	c-0.5,2.1-1.2,4.2-2.2,6.1l9.1,8.7l-5.1,2.2l-7.1-6.8c-2.4,2.3-5.3,4-8.5,5c-4.2,1.3-8.7,2-13.1,1.9c-6.8,0-12.3-1.2-16.4-3.8
	s-6.2-5.8-6.2-9.9c0-3.5,1.5-6.8,4.5-10c2.6-2.8,6.9-5.8,12.6-9.2l-2.1-2c-2.3-2.1-4.3-4.5-5.9-7.1
	C786.9,64.1,786.3,61.8,786.3,59.4L786.3,59.4z M801.6,104.5c3.6,0.1,7.1-0.4,10.6-1.4c2.7-0.9,5.2-2.4,7.3-4.4l0.6-0.6l-20.9-20
	c-3.8,2.1-7.2,4.7-10.3,7.7c-2.4,2.3-3.8,5.4-3.8,8.6c0,3.1,1.5,5.6,4.5,7.4S796.4,104.5,801.6,104.5L801.6,104.5z M792.3,59.1
	c0,2,0.6,4,1.6,5.8c1.4,2.3,3.2,4.4,5.3,6.3l1,1c3.1-1.7,6-3.8,8.5-6.3c2-1.9,3.1-4.5,3.2-7.2c0.1-2.2-0.9-4.2-2.7-5.5
	c-2.1-1.4-4.6-2.1-7.1-2c-2.5-0.1-5,0.8-7,2.4C793.3,54.8,792.3,56.9,792.3,59.1L792.3,59.1z"/>
<path class="st0" d="M901.7,106.5V84.1c0-7.5-2.1-13.5-6.2-17.9s-9.7-6.6-16.6-6.6c-6.1-0.2-12,2.1-16.4,6.3
	c-4.3,4-6.7,9.7-6.6,15.7c-0.2,5.9,2.2,11.6,6.5,15.7c4.3,4.1,9.8,6.2,16.5,6.2c3.5,0,7-0.7,10.3-2.1c3.3-1.5,6.3-3.6,8.9-6.3v5.7
	c-2.7,2.2-5.7,3.9-8.9,5.1c-3.3,1.1-6.7,1.7-10.2,1.7c-3.8,0-7.6-0.6-11.2-2c-6.6-2.5-12-7.5-14.8-14c-1.3-3.1-2-6.5-2-9.9
	c-0.2-7,2.7-13.8,7.9-18.6c5.2-4.9,11.9-7.3,19.9-7.3c4.8-0.1,9.5,1,13.7,3.2c4.2,2.1,7.7,5.3,10.3,9.2c1.4,2.1,2.4,4.5,2.9,6.9
	c0.7,3.1,1,6.2,0.9,9.4v22H901.7z M911.1,102.4h24c4.2,0,7.5-0.7,9.8-2.2c2.2-1.3,3.5-3.6,3.5-6.2c0-2.4-1.1-4.7-3-6.2
	c-2-1.7-5.2-3-9.6-4.1L925,81c-4.7-1.2-8.1-2.8-10.4-4.9c-2.2-2-3.5-4.9-3.4-7.9c-0.1-3.5,1.6-6.8,4.5-8.7c3-2,7.3-3,12.9-3h20.4v4
	h-22.2c-3.5,0-6.2,0.7-8.1,2c-1.9,1.4-2.9,3.6-2.8,5.9c0,2.1,1,4,2.7,5.2c1.8,1.4,4.6,2.6,8.5,3.6l11.2,2.8c4.8,1.2,8.5,3,11,5.3
	c2.4,2.1,3.8,5.2,3.7,8.4c0.2,4-1.8,7.7-5.3,9.6c-3.5,2.1-8.9,3.2-16.3,3.2h-20.5L911.1,102.4L911.1,102.4z M954.8,81.6
	c0-3.4,0.7-6.8,2.1-9.9c1.5-3.2,3.6-6.1,6.2-8.5c2.6-2.4,5.7-4.3,9-5.5c6.9-2.6,14.5-2.6,21.3,0c3.3,1.3,6.4,3.1,9,5.5
	c2.6,2.4,4.7,5.2,6.1,8.4c2.8,6.4,2.8,13.6,0,20c-1.4,3.2-3.5,6.1-6.1,8.4c-2.6,2.4-5.7,4.3-9,5.6c-6.9,2.5-14.5,2.5-21.3,0
	c-3.3-1.3-6.4-3.2-9-5.6c-2.6-2.4-4.7-5.3-6.2-8.5C955.5,88.4,954.8,85.1,954.8,81.6L954.8,81.6z M959.8,81.5
	c-0.1,5.9,2.4,11.5,6.7,15.5c9.2,8.5,23.3,8.5,32.5,0c8.6-8.2,8.9-21.8,0.7-30.4c-0.2-0.2-0.5-0.5-0.7-0.7c-9.2-8.4-23.3-8.4-32.5,0
	C962.2,70,959.7,75.6,959.8,81.5L959.8,81.5z M1050.4,60.5h-5.2c-7.8,0-14.2,1.9-19.1,5.8c-8.4,6.6-9.8,18.7-3.2,27.1
	c0.9,1.2,2,2.3,3.2,3.2c4.9,3.9,11.3,5.8,19.1,5.8h5.2v4h-4.2c-10,0-17.9-2.3-23.8-6.8c-5.8-4.5-8.8-10.6-8.8-18.2
	c0-4.1,1.1-8.1,3.1-11.6c2.2-3.6,5.3-6.7,8.9-8.9c2.7-1.6,5.6-2.8,8.6-3.5c3.9-0.8,7.9-1.2,11.8-1.1h4.2L1050.4,60.5z"/>
<path class="st0" d="M426.3,166.3c0.7-0.4,1.4-0.5,2.2-0.5c0.8,0,1,0.4,0.6,1.2c-0.4,0.6-0.9,1-1.6,1.3c-0.7,0.3-1.4,0.6-2.1,0.9
	c-2.8,1.2-5.8,2.2-8.8,2.8c-1.8,0.3-3.7,0.5-5.6,0.6c-1.9,0.1-3.7,0-5.6-0.3c-0.6-0.1-1.4-0.2-2.2-0.3c-0.8-0.1-1.6-0.4-2.4-0.6
	c-0.7-0.2-1.4-0.6-2-1c-0.5-0.4-0.9-0.9-1-1.5c-0.3-1,0.1-2,1-2.5c1.1-0.6,2.2-0.9,3.4-1.1c1.4-0.2,2.8-0.2,4.2-0.2
	c1.1,0,2.2,0.1,3.4,0.4c0.3,0.1,1.1,0.3,2.4,0.7s2.6,0.8,4.1,1.2s2.7,0.7,3.9,1s1.9,0.3,2,0.1c0.7-0.3,1.1-1.1,1-1.8
	c-0.1-0.9-0.4-1.7-0.8-2.5c-0.5-0.9-1.1-1.7-1.7-2.4c-0.5-0.6-1.1-1.2-1.7-1.6c-0.9-0.6-2-1.1-3.1-1.3c-1.2-0.3-2.5-0.4-3.8-0.4
	c-1.3,0-2.6,0.2-3.8,0.5c-1.1,0.3-2.2,0.6-3.3,1.1c-0.7,0.3-1.3,0.7-1.8,1.1c-0.6,0.5-1.2,0.8-1.9,0.9c-0.8,0.1-1.2,0.1-1.4-0.2
	c-0.1-0.3-0.1-0.6,0.1-0.9c0.2-0.4,0.5-0.7,0.8-1c0.3-0.3,0.6-0.5,0.9-0.7c1.7-0.9,3.5-1.5,5.4-1.9c2-0.4,4-0.6,6.1-0.5
	c1.7,0,3.4,0.4,4.9,0.9c1.4,0.5,2.7,1.3,3.8,2.3c1,0.9,1.8,2,2.4,3.2c0.6,1.2,0.8,2.5,0.7,3.9L426.3,166.3L426.3,166.3z
	 M412.2,170.9c1.3-0.1,2.6-0.3,3.8-0.5c1.2-0.2,2.3-0.5,3.4-0.8c-1.8-0.4-3.6-0.9-5.4-1.4c-1.8-0.5-3.6-0.9-5.4-1.2
	c-0.6-0.1-1.3-0.1-1.9-0.1c-1,0-2,0-3.1,0.1c-0.9,0.1-1.8,0.2-2.7,0.5c-0.8,0.3-1,0.7-0.9,1.2c0,0.6,0.5,1.1,1.6,1.5
	c1.2,0.4,2.5,0.6,3.8,0.7c1.4,0.1,2.7,0.2,4.1,0.2C410.8,170.9,411.7,170.9,412.2,170.9L412.2,170.9z"/>
<path class="st0" d="M479.8,162.9c-3.8,1.9-7.7,3.5-11.8,4.7c-3,1-6,1.7-9.1,2.3c0.1,0.3,0.1,0.6,0,0.9c-0.1,0.3-0.4,0.6-0.7,0.8
	c-0.5,0.3-1.2,0.3-1.7-0.1c-0.5-0.3-1-0.6-1.5-1c-2.5,0.4-4.9,0.6-7.4,0.7c-2.5,0.1-5-0.1-7.4-0.6c-1-0.1-2-0.3-3-0.6
	c-1-0.3-2-0.6-3-1.1c-0.9-0.4-1.7-0.9-2.5-1.6c-0.7-0.5-1.2-1.3-1.4-2.1c-0.4-0.7-0.1-1.5,0.5-1.9c0.8-0.5,1.6-0.8,2.5-0.9
	c1-0.2,2.1-0.3,3.2-0.2c1.1,0,2,0.1,2.6,0.1c2.9,0.3,5.8,1,8.6,2c2.6,0.9,5.1,2.1,7.5,3.5l-0.8-3.9c-0.5-2.4-0.7-4.8-0.8-7.2
	c0-2.4,0-4.8,0-7.2c0-2.4,0.1-4.8,0.2-7.2c0.1-2.4,0.1-4.8,0-7.2c0-1.1-0.1-2.1-0.4-3.1c-0.3-1-0.5-2-0.8-3c-0.1-0.4,0-0.9,0.3-1.2
	c0.2-0.3,0.6-0.5,0.9-0.5c0.4-0.1,0.7,0,1,0.3c0.3,0.3,0.6,0.7,0.6,1.2c0.6,2.1,0.9,4.3,0.8,6.5c-0.1,2.3-0.2,4.4-0.4,6.6
	c0,2.7,0,5.3-0.1,7.9c-0.1,2.6-0.1,5.2,0,7.8c0.1,1.7,0.2,3.5,0.5,5.5c0.2,1.8,0.8,3.6,1.8,5.2c1.6-0.2,3.1-0.5,4.5-0.8l4.5-1
	c1.8-0.5,3.5-1,5.2-1.5s3.3-1,5-1.5L479.8,162.9L479.8,162.9z M447.6,169.2c1.8,0,3.6-0.1,5.4-0.3c-0.9-0.5-1.7-1-2.6-1.4
	c-1-0.4-2-0.8-3-1.2l-2.8-0.8c-1.6-0.5-3.2-0.8-4.8-1.1c-1.5-0.3-3.1-0.4-4.6-0.4c-1.3,0-2,0.4-2,1.1c0.2,1.1,1,1.9,2.1,2.2
	c1.3,0.6,2.7,1,4.1,1.3c1.5,0.3,3.1,0.5,4.6,0.6C445.4,169.2,446.6,169.2,447.6,169.2z"/>
<path class="st0" d="M484.1,156.4c0.2,0.9,0.2,1.7,0.1,2.6c-0.1,0.9-0.1,1.7-0.2,2.6c-0.1,0.4-0.2,1-0.3,1.8c-0.1,1-0.3,1.9-0.6,2.8
	c-0.3,1.1-0.6,2.1-1,3.3c-0.3,1-0.8,2-1.4,2.9c-0.5,0.8-1.1,1.4-1.9,1.8c-0.7,0.4-1.6,0.4-2.4,0c-0.8-0.5-1.5-1.2-2-2
	c-0.5-0.9-0.9-1.6-1.2-2.4c-0.6-1-1.1-2-1.5-3.1c-0.4-1.1-0.7-2.1-1.1-3.2l-4.1-12.6c-0.2-0.7-0.4-1.3-0.8-1.9
	c-0.4-0.9-0.8-1.9-1.2-2.9c-0.3-0.9-0.5-1.8-0.6-2.8c-0.1-0.8,0.2-1.3,0.7-1.5c0.5-0.2,1.1-0.1,1.4,0.3c0.4,0.5,0.7,1,1,1.6
	c0.2,0.7,0.4,1.3,0.5,2c0.1,0.7,0.2,1.3,0.3,1.6c0.6,2.2,1.3,4.4,2,6.6s1.4,4.4,2.1,6.5c0.4,1.2,0.8,2.4,1.2,3.7
	c0.4,1.3,0.9,2.5,1.5,3.7c0.2,0.7,0.5,1.6,0.9,2.6c0.3,0.9,1,1.7,1.8,2.2c0.7-0.4,1.3-0.9,1.7-1.6c0.4-0.7,0.8-1.5,1.1-2.3
	c0.3-0.8,0.5-1.6,0.6-2.4c0.1-0.7,0.2-1.4,0.4-2.1c0.2-1.3,0.4-2.5,0.6-3.8c0.2-1.3,0.1-2.6-0.1-3.8c0-0.4-0.1-0.7-0.3-1.1
	c-0.2-0.4-0.4-0.8-0.5-1.3c-0.1-0.4-0.1-0.8-0.1-1.3c0.2-0.7,1-1.1,1.7-0.9c0.2,0.1,0.3,0.1,0.4,0.2c0.3,0.4,0.6,0.8,0.7,1.3
	c0.2,0.5,0.3,1,0.3,1.5C484.1,155.9,484.1,156.2,484.1,156.4z"/>
<path class="st0" d="M519.9,157c0.2-0.2,0.5-0.5,0.7-0.7s0.4-0.5,0.5-0.7c-0.7,1.8-1.7,3.5-2.9,5c-1.3,1.7-2.8,3.2-4.4,4.5
	c-2.6,2.1-5.5,3.8-8.5,5.2c-3.2,1.5-6.7,2.4-10.3,2.5c-1.6,0.1-3.1-0.1-4.6-0.6c-1.3-0.4-2.3-1.4-2.8-2.7c-0.6-1.3-0.4-2.8,0.3-4
	c0.8-1.4,1.9-2.6,3.2-3.6c1.4-1.2,3-2.2,4.6-3.1c1.7-0.9,3.2-1.7,4.5-2.3c0.5-0.2,1.4-0.6,2.5-1.1c1.1-0.5,2.3-0.9,3.5-1.3
	c1.1-0.3,2.3-0.6,3.5-0.6c0.9-0.1,1.9,0.3,2.5,1c0.3,0.3,0.4,0.7,0.4,1.1c-0.2,0.7-0.6,1.3-1.2,1.7c-0.6,0.5-1.2,0.9-1.9,1.3
	c-0.8,0.4-1.6,0.8-2.5,1.1c-1.5,0.6-3.1,1.2-4.8,1.7c-1.5,0.5-3.1,0.8-4.7,1.1c-1.4,0.2-2.1-0.1-2.1-0.9c-0.6,0.4-1.4,1-2.2,1.6
	c-0.8,0.6-1.5,1.3-2.1,2.1c-0.5,0.7-0.9,1.4-1.2,2.3c-0.2,0.8,0.1,1.6,0.6,2.2c0.5,0.5,1.1,0.9,1.8,1.1c0.8,0.2,1.5,0.3,2.3,0.2
	c0.8,0,1.6-0.1,2.4-0.3c0.8-0.1,1.5-0.3,2.1-0.5c4.3-0.9,8.5-2.7,12.1-5.2C514.4,162.9,517.4,160.1,519.9,157L519.9,157z
	 M505.6,156.5c-1.5,0.5-3,1-4.5,1.7c-1.4,0.7-2.8,1.4-4.1,2.2l3.5-0.6c1.2-0.2,2.4-0.5,3.5-0.8c1.1-0.3,2.2-0.8,3.2-1.3
	c0.9-0.5,1.8-1.2,2.4-2c-0.7,0-1.4,0.1-2,0.3L505.6,156.5z"/>
<path class="st0" d="M525.2,151.3c-0.3,0-0.6-0.2-0.6-0.5c0,0,0,0,0,0c0-0.7,0.3-1.3,0.7-1.7c0.5-0.6,1.1-1.1,1.8-1.3
	c2.3-0.6,3.5-0.5,3.6,0.3c0,0.1,0,0.3-0.1,0.4c-0.7,1.7-2,4.5-3.9,8.4c6.3-6.1,12.6-10,19-11.7c0.9-0.2,1.8-0.4,2.7-0.5
	c2.3-0.3,3.6,0.2,3.7,1.4c0,0.9-0.2,1.8-0.6,2.6c-1.2,2.5-2.9,3.8-5.1,4.1c-1.8,0.2-2.8-0.3-2.9-1.6c-0.1-1.4,0.5-2.7,1.6-3.5
	c-4.8,0.8-9.6,3.5-14.5,8c-4.8,4.7-8.4,10.4-10.7,16.7c-2.2,5.8-3.1,9.7-2.5,11.8c0.5,1.9,0.4,3-0.1,3.3c-0.5,0.4-1.1,0.6-1.7,0.6
	c-0.7,0.1-1.4,0-2.1-0.2c-0.6-0.2-0.9-0.5-0.8-0.9c0.7-3.3,2.8-9.6,6.4-18.8S524.7,153.3,525.2,151.3z"/>
<path class="st0" d="M574.3,159.3c0.7,0.5,0.8,0.9,0.2,1.4c-0.7,0.5-1.5,0.9-2.3,1.1c-1,0.3-1.9,0.5-2.9,0.6c-1,0.1-1.5,0.2-1.7,0.2
	c-3.4,0.4-6.8,0.4-10.1,0v5.2c0,1.7,0,3.5,0.1,5.3l2.1,2.9c1,1.4,1.8,2.8,2.6,4.3c0.7,1.4,1.2,2.8,1.5,4.4c0.3,1.4-0.1,2.3-1.1,2.8
	c-0.9,0.6-2,0.6-2.9,0.1c-0.9-0.6-1.6-1.4-2-2.3c-0.6-1.2-1-2.5-1.3-3.9c-0.3-1.5-0.5-2.9-0.7-4.4s-0.3-2.7-0.3-3.9s-0.1-2-0.1-2.5
	c-1.1-1.2-2.2-2.4-3.2-3.7c-1-1.2-2.1-2.4-3.3-3.4c-0.4-0.3-0.7-0.6-1.1-0.9c-0.5-0.3-1-0.7-1.4-1.1c-0.4-0.3-0.8-0.7-1-1.2
	c-0.2-0.4-0.1-0.9,0.3-1.2c0.2-0.5,0.7-0.7,1.5-0.7c1,0,1.9,0.2,2.8,0.4c1.1,0.3,2.1,0.5,3,0.8s1.6,0.4,2,0.5
	c-0.1-6.4,0-12.8,0.2-19.1c0.2-6.3,0.2-12.7,0-19.1c0-0.5,0-1.1-0.1-1.6c-0.1-0.5-0.1-1.1-0.1-1.6c0-0.5,0.1-1,0.4-1.4
	c0.2-0.3,0.6-0.5,0.9-0.5c0.4,0,0.7,0.2,1,0.5c0.3,0.4,0.5,0.9,0.5,1.4c0.2,2.2,0.2,4.4,0.1,6.6c-0.1,2.2-0.2,4.4-0.2,6.5
	c0,4.9,0,9.7-0.1,14.4c0,4.7-0.1,9.5-0.1,14.2c1.7,0.2,3.3,0.4,5.1,0.4c1.8,0.1,3.6-0.1,5.3-0.4c0.5,0,1-0.2,1.5-0.4l1.8-0.8
	c0.5-0.2,1.1-0.4,1.7-0.5C573.3,158.9,573.8,159,574.3,159.3L574.3,159.3z M557.7,174.3c0.1,0.5,0.2,1.5,0.2,2.9
	c0.1,1.5,0.3,3,0.5,4.4c0.2,1.3,0.7,2.7,1.3,3.9c0.4,1,1.4,1.5,2.4,1.2c0.9-0.2,1.2-0.9,1-1.9c-0.2-1.2-0.6-2.4-1.2-3.5
	c-0.6-1.2-1.2-2.4-2-3.6c-0.8-1.1-1.2-1.9-1.5-2.3L557.7,174.3L557.7,174.3z M555.2,168.3c-0.1-1-0.2-1.9-0.2-2.9v-2.9l-2.4-0.5
	l-3.3-0.4c0.9,1.4,1.9,2.8,2.9,4c1,1.2,2,2.6,3,3.9L555.2,168.3z"/>
<path class="st0" d="M591.4,144.3c0.1,0.6-0.2,1.3-0.7,1.6c-0.6,0.5-1.3,1-2,1.4c-0.8,0.4-1.6,0.8-2.4,1.1l-1.9,0.8
	c-2.3,1-4.7,1.9-7.1,2.6c-2.5,0.7-5,1.2-7.6,1.4c-0.5,0-1.3,0-2.3,0c-0.9,0-1.9,0-2.8-0.1c-0.8-0.1-1.5-0.3-2.2-0.7
	c-0.5-0.3-0.7-1-0.5-1.6c0.3-0.5,0.7-1,1.2-1.3c0.7-0.4,1.3-0.7,2.1-0.9c0.8-0.3,1.5-0.5,2.3-0.7s1.4-0.4,1.9-0.5
	c2-0.5,4.1-0.8,6.1-1c2-0.2,4.1-0.1,6.1,0.2c-1.3,0-2.8,0.2-4.5,0.4c-1.7,0.2-3.3,0.4-5,0.8c-1.6,0.3-3.1,0.8-4.6,1.4
	c-1.3,0.5-2.5,1.2-3.5,2.1c0.9,0.4,1.8,0.7,2.8,0.6c1.2,0,2.3-0.1,3.5-0.3c1.2-0.2,2.4-0.5,3.5-0.8s2-0.6,2.8-0.8
	c2-0.7,4.1-1.4,6.3-2.3c2-0.8,4-1.8,5.7-3.1c-2.7-0.5-5.4-0.5-8.1,0c-2.7,0.5-5.3,1.1-7.8,1.8c-0.7,0.1-1.3,0.2-2,0.1
	c-0.8-0.1-1.1-0.4-0.8-1c0.3-0.7,0.9-1.2,1.7-1.3c0.9-0.2,1.7-0.4,2.4-0.5c1.3-0.2,2.5-0.4,3.7-0.6s2.4-0.4,3.7-0.5
	c0.5-0.1,1.4-0.1,2.5-0.2s2.2-0.1,3.3-0.1c1,0,2,0.2,2.9,0.5C590.9,143.2,591.3,143.6,591.4,144.3L591.4,144.3z M581.7,167.2
	c0.2,0.5,0.5,1,0.8,1.6c0.3,0.5,0.2,1.2-0.2,1.6c-0.2,0.3-0.4,0.5-0.8,0.5c-0.4,0.1-0.8,0-1.1-0.3c-0.7-0.4-1.1-1.2-1.1-1.9
	c0-0.8-0.1-1.5-0.2-2.2c-0.6-1.8-0.9-3.7-0.9-5.6c0.2-0.7,0.3-1.4,0.3-2.1c0.1-0.8,0.6-1.5,1.2-1.9c0.1-0.3,0.4-0.5,0.7-0.5
	c0.4-0.1,0.8,0,1.1,0.2c0.3,0.2,0.5,0.5,0.3,0.8c0,0.8-0.3,1.5-0.7,2.2c-0.5,0.7-0.7,1.5-0.7,2.3
	C580.4,163.6,580.9,165.5,581.7,167.2z"/>
<path class="st0" d="M615.8,165.2c0.2,0.2,0.5,0.4,0.7,0.6c0.2,0.2,0.3,0.5,0.3,0.8c0,1.3-0.7,2.5-1.9,3c-1.5,0.8-3.1,1.5-4.7,2
	c-1.8,0.6-3.7,1-5.5,1.3l-4.4,0.8c-0.9,0.2-2.1,0.4-3.5,0.6c-1.3,0.2-2.7,0.3-4.1,0.2c-1.1,0-2.2-0.3-3.2-0.9
	c-0.8-0.5-1-1.4-0.7-2.6c0.5-2,1.6-3.8,3-5.2c1.5-1.6,3.1-3,4.9-4.3c-0.5,0.6-1,1.3-1.5,2c-0.4,0.7-0.9,1.4-1.3,2
	c-0.3,0.4-0.7,0.8-1.1,1.4s-0.8,1.2-1.2,1.9c-0.4,0.6-0.6,1.3-0.8,2c-0.2,0.6-0.1,1.2,0.1,1.7c0.1,0.4,0.7,0.5,1.8,0.4
	s2.4-0.2,3.8-0.4s2.8-0.4,4.1-0.6c0.8-0.1,1.6-0.3,2.4-0.5c2-0.5,4.1-1,6.1-1.6c1.9-0.5,3.6-1.5,5-2.8h0.2c-0.8-1-1.9-1.7-3.2-2
	c-1.5-0.5-2.8-0.9-3.9-1.2l-9.5-3.5c-0.7-0.3-1.6-0.6-2.6-1c-1-0.4-1.9-0.8-2.8-1.3c-0.8-0.4-1.6-1-2.3-1.6c-0.6-0.5-1-1.2-1-2
	c0-0.5,0.3-1,0.8-1.2c0.5-0.3,1.1-0.5,1.7-0.6c0.7-0.1,1.3-0.2,2-0.2c0.7,0,1.3,0,1.8,0s1.3,0.1,2.9,0.2s3.3,0.3,5.1,0.6
	c1.6,0.2,3.1,0.6,4.6,1.1c1.3,0.4,1.8,1,1.5,1.7c-0.2,0.3-0.5,0.5-0.8,0.6h-0.5c-1.1,0-2.1-0.3-3.1-0.8c-1-0.5-2.1-0.8-3.2-1
	c-0.7-0.1-1.5-0.2-2.4-0.4s-1.7-0.2-2.6-0.3c-0.9-0.1-1.8-0.1-2.7,0c-0.8,0-1.5,0.2-2.2,0.4c0.5,0.8,1.2,1.4,2.1,1.6
	c1.1,0.4,2,0.8,2.8,1.1c1.2,0.5,2.3,1,3.5,1.5s2.3,0.9,3.5,1.3c2,0.8,4.2,1.5,6.5,2.2C612.1,163,614,164,615.8,165.2z"/>
<path class="st0" d="M636.4,144.3c0.1,0.6-0.2,1.3-0.7,1.6c-0.6,0.5-1.3,1-2,1.4c-0.8,0.4-1.6,0.8-2.4,1.1l-2,0.8
	c-2.3,1-4.7,1.9-7.1,2.6c-2.5,0.7-5,1.2-7.6,1.4c-0.5,0-1.3,0-2.3,0c-0.9,0-1.9,0-2.8-0.1c-0.8-0.1-1.5-0.3-2.2-0.7
	c-0.5-0.3-0.7-1-0.5-1.6c0.3-0.5,0.7-1,1.2-1.3c0.7-0.4,1.3-0.7,2.1-0.9c0.8-0.3,1.5-0.5,2.3-0.7s1.4-0.4,1.9-0.5
	c2-0.5,4.1-0.8,6.1-1c2-0.2,4.1-0.1,6.1,0.2c-1.3,0-2.8,0.2-4.5,0.4c-1.7,0.2-3.3,0.4-5,0.8c-1.6,0.3-3.1,0.8-4.6,1.4
	c-1.3,0.5-2.5,1.2-3.5,2.1c0.9,0.4,1.8,0.7,2.8,0.6c1.2,0,2.3-0.1,3.5-0.3c1.2-0.2,2.4-0.5,3.5-0.8s2-0.6,2.8-0.8
	c2-0.7,4.1-1.4,6.3-2.3c2-0.8,4-1.8,5.7-3.1c-2.7-0.5-5.4-0.5-8.1,0c-2.7,0.5-5.3,1.1-7.8,1.8c-0.6,0.1-1.3,0.2-1.9,0.1
	c-0.8-0.1-1.1-0.4-0.8-1c0.3-0.7,1-1.2,1.7-1.3c0.9-0.2,1.7-0.4,2.4-0.5c1.3-0.2,2.5-0.4,3.7-0.6s2.4-0.4,3.7-0.5
	c0.5-0.1,1.4-0.1,2.5-0.2s2.2-0.1,3.3-0.1c1,0,2,0.2,2.9,0.5C635.9,143.2,636.3,143.6,636.4,144.3L636.4,144.3z M626.7,167.2
	c0.2,0.5,0.5,1,0.8,1.6c0.3,0.5,0.2,1.2-0.2,1.6c-0.2,0.3-0.4,0.5-0.8,0.5c-0.4,0.1-0.8,0-1.1-0.3c-0.7-0.4-1.1-1.2-1.1-1.9
	c0-0.8-0.1-1.5-0.2-2.2c-0.6-1.8-0.9-3.7-0.9-5.6c0.2-0.7,0.3-1.4,0.3-2.1c0.1-0.8,0.5-1.5,1.2-1.9c0.1-0.3,0.4-0.5,0.7-0.5
	c0.4-0.1,0.8,0,1.1,0.2c0.3,0.2,0.5,0.5,0.3,0.8c0,0.8-0.3,1.5-0.7,2.2c-0.5,0.7-0.7,1.5-0.7,2.3
	C625.4,163.6,625.9,165.5,626.7,167.2L626.7,167.2z"/>
<path class="st0" d="M675.1,166.9c-1.6,1.1-3.4,2-5.3,2.7c-2.1,0.7-4.3,0.9-6.5,0.6c-1.3-0.2-2.6-0.7-3.6-1.6
	c-0.8-0.8-1.5-1.8-2-2.9c-0.3-0.7-0.5-1.5-0.6-2.3c-0.1-0.8-0.5-1.6-1.1-2.2c-0.6-0.6-1.5-0.8-2.3-0.4c-1,0.4-1.9,0.9-2.8,1.5
	c-0.9,0.7-1.8,1.4-2.6,2.2c-0.8,0.8-1.4,1.4-1.7,1.7c-0.6,0.5-1.1,1.1-1.6,1.7c-0.6,0.7-1.3,1.4-2,2.1c-0.7,0.7-1.5,1.2-2.4,1.6
	c-0.8,0.4-1.7,0.6-2.6,0.4c-1-0.2-2-0.7-2.6-1.6c-0.5-0.8-0.9-1.8-1-2.8c-0.1-1-0.1-2,0-3c0.1-0.8,0.2-1.6,0.4-2.4
	c0.2-0.7,0.4-1.3,0.7-2c0.5-1.1,1-2.2,1.7-3.3c0.6-1,1.4-1.8,2.2-2.6c0.6-0.6,1.7-0.6,2.3,0c0,0,0,0,0,0c0.3,0.3,0.3,0.8,0,1.1
	c-0.3,0.5-0.6,1-1,1.5c-0.4,0.5-0.9,1-1.4,1.5c-0.4,0.3-0.8,0.7-1,1.2c-0.4,0.7-0.7,1.5-0.9,2.3c-0.3,0.9-0.5,1.8-0.6,2.8
	c-0.1,0.9,0,1.9,0.2,2.8c0.2,0.9,0.6,1.7,1.3,2.4c0.8-0.3,1.5-0.7,2.2-1.3c0.7-0.5,1.4-1.1,2-1.7c0.6-0.6,1.2-1.2,1.7-1.8
	c0.5-0.6,1.1-1.1,1.7-1.6c0.5-0.5,1.1-1,1.7-1.6c0.6-0.6,1.3-1.2,2-1.7c0.7-0.5,1.5-1,2.3-1.4c0.8-0.4,1.7-0.6,2.6-0.6
	c1.2-0.1,2.3,0.4,3.1,1.3c0.7,0.9,1.2,1.8,1.5,2.9c0.4,1.1,0.8,2.1,1.2,3.2c0.3,1,1.1,1.8,2,2.4c0.8,0.4,1.7,0.5,2.7,0.6
	c0.9,0,1.7-0.1,2.6-0.3c0.9-0.2,1.7-0.4,2.5-0.6s1.6-0.4,2.5-0.5L675.1,166.9z"/>
<path class="st0" d="M691.3,197.1c0.2,1,0.3,2.3,0.6,3.8c0.2,1.6,0.4,3.2,0.5,4.8c0.1,1.7,0,3.3-0.1,5c-0.1,1.6-0.5,3.1-1.1,4.6
	c-1.2,3.1-4.2,5.1-7.5,5.3c-1.8,0.2-3.6,0-5.4-0.6c-1.7-0.6-3.3-1.4-4.7-2.4c-1.5-1-2.8-2.1-4.1-3.4c-1.2-1.2-2.3-2.4-3.1-3.4
	c-2.2-2.7-4.1-5.6-5.6-8.8c-1.4-3-2.3-6.3-2.7-9.6c-0.2-2.9,0.2-5.8,1.3-8.4c1.3-2.9,3.6-5.2,6.5-6.4c-1.7,1.2-3.1,2.7-4.1,4.5
	c-0.9,1.6-1.5,3.4-1.7,5.3c-0.2,1.8-0.2,3.7,0.1,5.5c0.3,1.8,0.8,3.6,1.4,5.4c2,5.7,5.3,10.8,9.7,14.9l2.5,2c1,0.8,2,1.5,3.1,2.1
	c1.1,0.6,2.3,1.1,3.5,1.4c1.2,0.3,2.4,0.3,3.6-0.1c1.7-0.3,3.2-1.3,4-2.8c0.7-1.3,1.2-2.8,1.4-4.2c0.5-2.8,0.5-5.6,0.2-8.4
	c-0.3-2.8-0.7-5.6-1.2-8.3c-0.9-5.8-2-11.6-3.3-17.3c-1.2-5.7-2-11.5-2.1-17.3c-0.8,0.9-1.7,1.6-2.7,2.3c-1.2,0.9-2.5,1.5-3.8,2
	c-1.3,0.5-2.7,0.7-4.1,0.6c-1.3,0-2.5-0.7-3.2-1.8c-0.7-0.7-0.9-1.6-0.7-2.5c0.3-0.8,0.8-1.6,1.5-2.1c0.8-0.7,1.7-1.2,2.7-1.6
	c1-0.4,2-0.7,3-0.9c1.2-0.1,2.4-0.2,3.7-0.3c1.2-0.1,2.5,0,3.6,0.3c0.1-0.3,0.2-0.6,0.2-0.9c0-0.5,0.1-1,0.3-1.4
	c0.1-0.4,0.3-0.7,0.6-1c0.3-0.2,0.7-0.1,1.2,0.2c0.6,0.5,0.8,1.3,0.6,2c-0.2,0.9-0.4,1.6-0.6,2.1c-0.2,2-0.3,4-0.1,6
	c0.2,2,0.4,3.9,0.8,5.9c0.6,4.8,1.4,9.5,2.5,14.2c1,4.7,1.9,9.4,2.6,14.2L691.3,197.1z M678.5,161.2c1.3-0.9,2.5-1.9,3.5-3.2
	c-1-0.2-2-0.3-3-0.4c-1.2-0.1-2.4,0-3.6,0.1c-1.1,0.1-2.1,0.4-3.1,0.9c-0.8,0.4-1.3,1.3-1.3,2.2c-0.2,0.3,0,0.7,0.5,1.2
	c0.4,0.4,0.9,0.7,1.5,0.7c0.7,0,1.3,0,1.9-0.2c0.7-0.2,1.3-0.4,1.9-0.6C677.5,161.8,678,161.5,678.5,161.2z"/>
<path class="st0" d="M831.1,163c0.5,0.2,0.8,0.6,0.6,0.9c-0.2,0.5-0.5,0.9-0.8,1.2c-0.4,0.4-0.9,0.8-1.4,1.1
	c-0.5,0.3-0.9,0.6-1.1,0.8c-2.9,1.9-6.2,3.2-9.7,3.7c-4.4,0.8-8.8,0.8-13.2-0.2c-0.6-0.2-1.3-0.4-2.2-0.6c-0.8-0.2-1.6-0.5-2.3-0.8
	c-0.7-0.3-1.3-0.7-1.9-1.2c-0.5-0.4-0.8-0.9-0.8-1.6c-0.2-1,0-2,0.7-2.8c0.7-1,1.6-1.9,2.6-2.6c1.1-0.8,2.2-1.5,3.5-2.1
	c1.1-0.6,2.2-1,3.4-1.4c2.7-0.8,5.6-1.1,8.4-0.9c2.8,0.2,5.6,0.8,8.2,1.8c-1.8-0.2-3.7-0.4-5.7-0.5c-1.9-0.1-3.8,0-5.7,0.3
	c-1.5,0.2-2.9,0.5-4.3,0.9c-1.4,0.4-2.7,1-4,1.7c-1.2,0.6-2.2,1.5-3.1,2.4c-0.8,0.9-1.3,2-1.6,3.2c0.3,0.6,0.9,1.1,1.6,1.3
	c0.9,0.3,1.8,0.6,2.7,0.8c1,0.2,1.9,0.4,2.9,0.5c0.8,0.1,1.6,0.2,2.3,0.2c2,0.1,4,0.1,6.1-0.1c1.9-0.2,3.9-0.6,5.7-1.2
	c0.9-0.3,1.7-0.7,2.6-1.1c0.8-0.4,1.5-0.8,2.2-1.3c0.3-0.2,0.6-0.5,0.8-0.8c0.3-0.4,0.6-0.7,1-1c0.3-0.3,0.7-0.5,1.1-0.7
	C830.3,162.8,830.7,162.9,831.1,163z"/>
<path class="st0" d="M856.4,161.6c0.3,0.6,0.4,1.3,0.1,2c-0.3,0.7-0.7,1.3-1.2,1.8c-0.6,0.6-1.2,1-1.9,1.5c-0.7,0.4-1.4,0.8-2.1,1
	c-1.8,0.7-3.6,1.2-5.5,1.4c-2,0.2-3.9,0.2-5.9-0.1c-1.6-0.2-3.2-0.7-4.5-1.5c-1.1-0.6-2-1.6-2.5-2.7c-0.5-1-0.5-2.2-0.1-3.3
	c0.6-1.3,1.6-2.5,2.9-3.2c1.3-0.9,2.7-1.7,4.2-2.3c1.5-0.7,3.2-1.1,4.9-1.3c0.6-0.1,1.2,0.1,1.8,0.4c0.5,0.3,0.5,0.7-0.1,1.2
	c-0.5,0.4-1.2,0.6-1.8,0.7c-0.8,0.1-1.4,0.2-2.1,0.3l3.8,0.2c1.2,0.1,2.5,0.2,3.7,0.5c1.3,0.3,2.6,0.7,3.9,1.2
	C854.9,159.8,855.8,160.6,856.4,161.6L856.4,161.6z M854.3,163.2c0.1-0.3,0.1-0.7,0.1-1c-0.4-0.7-1-1.2-1.8-1.6
	c-0.8-0.4-1.7-0.7-2.6-0.9c-1-0.2-2-0.3-2.9-0.4c-1-0.1-1.9-0.1-2.7-0.1c-0.5,0-1.1,0.1-1.6,0.2c-0.6,0.1-1.3,0.2-1.9,0.2
	c-0.6,0-1.1,0-1.7-0.1c-0.4,0-0.7-0.4-0.8-0.8c-1.2,0.5-2.2,1.3-3,2.3c-0.6,0.7-0.9,1.6-0.8,2.5c0.2,0.9,0.7,1.7,1.4,2.3
	c1.1,0.8,2.4,1.3,3.7,1.4c1.3,0.2,2.7,0.3,4.1,0.3c1.5,0,3-0.2,4.4-0.5c1.3-0.3,2.6-0.8,3.8-1.4
	C853.1,165.2,853.9,164.3,854.3,163.2z"/>
<path class="st0" d="M902.5,164.5c-1.7,1.1-3.5,1.9-5.4,2.4c-2.1,0.6-4.3,0.8-6.5,0.3c-1.3-0.2-2.6-0.9-3.5-1.8
	c-0.8-0.9-1.5-1.9-1.9-3c-0.2-0.7-0.4-1.5-0.5-2.3c-0.1-0.8-0.4-1.6-1-2.3c-0.6-0.7-1.5-0.9-2.3-0.5c-1,0.3-2,0.8-2.8,1.4
	c-0.9,0.6-1.8,1.4-2.7,2.1c-0.8,0.8-1.4,1.3-1.8,1.6c-0.6,0.5-1.1,1.1-1.7,1.6c-0.7,0.7-1.4,1.4-2.1,2c-0.7,0.6-1.5,1.2-2.4,1.5
	c-0.8,0.4-1.7,0.5-2.6,0.3c-1-0.2-1.9-0.8-2.5-1.7c-0.5-0.9-0.8-1.8-0.9-2.8c-0.1-1-0.1-2,0.1-3c0.1-0.8,0.3-1.6,0.5-2.4
	c0.2-0.7,0.5-1.4,0.8-2c0.5-1.1,1.1-2.2,1.8-3.2c0.7-0.9,1.4-1.8,2.3-2.5c0.7-0.6,1.7-0.6,2.3,0.1c0,0,0,0,0,0
	c0.3,0.3,0.3,0.8,0,1.1c-0.3,0.5-0.7,1-1.1,1.4c-0.5,0.5-0.9,1-1.5,1.4c-0.4,0.3-0.8,0.7-1,1.2c-0.4,0.7-0.7,1.5-1,2.3
	c-0.3,0.9-0.5,1.8-0.7,2.8c-0.1,0.9-0.1,1.9,0.1,2.8c0.2,0.9,0.6,1.8,1.2,2.5c0.8-0.3,1.6-0.7,2.3-1.2c0.7-0.5,1.4-1,2-1.6
	c0.6-0.6,1.2-1.2,1.8-1.8c0.5-0.5,1.1-1.1,1.7-1.5c0.6-0.4,1.2-0.9,1.8-1.5c0.7-0.6,1.4-1.2,2.1-1.6c0.8-0.5,1.6-0.9,2.4-1.3
	c0.8-0.3,1.8-0.5,2.7-0.5c1.2,0,2.3,0.5,3.1,1.4c0.6,0.9,1.1,1.9,1.5,2.9c0.4,1.1,0.7,2.2,1.1,3.3c0.3,1,1,1.9,1.9,2.4
	c0.8,0.4,1.7,0.6,2.6,0.7c0.9,0,1.7,0,2.6-0.1c0.9-0.1,1.7-0.3,2.5-0.5c0.8-0.2,1.6-0.3,2.5-0.4L902.5,164.5z"/>
<path class="st0" d="M925.8,167.3c0.2,0.2,0.5,0.4,0.7,0.6c0.2,0.2,0.3,0.5,0.3,0.8c0,1.3-0.7,2.5-1.9,3c-1.5,0.9-3.1,1.6-4.7,2.1
	c-1.8,0.6-3.7,1-5.5,1.3l-4.4,0.8c-0.9,0.2-2.1,0.4-3.5,0.6c-1.3,0.2-2.7,0.3-4.1,0.2c-1.1,0-2.2-0.3-3.2-0.9
	c-0.8-0.5-1-1.4-0.7-2.6c0.5-2,1.6-3.8,3-5.2c1.5-1.6,3.1-3,4.9-4.3c-0.5,0.6-1,1.3-1.5,2c-0.4,0.7-0.9,1.4-1.3,2
	c-0.4,0.5-0.8,0.9-1.1,1.4c-0.4,0.6-0.8,1.2-1.2,1.9c-0.4,0.6-0.7,1.3-0.8,2c-0.2,0.6-0.1,1.2,0.1,1.7c0.1,0.4,0.7,0.5,1.8,0.4
	s2.4-0.2,3.8-0.4s2.8-0.4,4.1-0.6c0.8-0.1,1.6-0.3,2.4-0.5c2-0.5,4.1-1,6.1-1.6c1.9-0.5,3.6-1.5,5-2.8h0.2c-0.8-1-1.9-1.7-3.2-2
	c-1.5-0.5-2.8-0.9-3.9-1.2l-9.5-3.5c-0.7-0.3-1.6-0.6-2.6-1c-1-0.4-1.9-0.8-2.8-1.3c-0.8-0.4-1.6-1-2.3-1.6c-0.6-0.5-1-1.2-1-2
	c0-0.5,0.3-1,0.8-1.2c0.5-0.3,1.1-0.5,1.7-0.6c0.7-0.1,1.3-0.2,2-0.2c0.7,0,1.3,0,1.8,0c0.3,0,1.3,0.1,2.9,0.2s3.3,0.3,5.1,0.6
	c1.6,0.3,3.1,0.6,4.6,1.1c1.3,0.4,1.8,1,1.5,1.7c-0.2,0.3-0.5,0.5-0.8,0.6h-0.5c-1.1,0-2.1-0.3-3.1-0.8c-1-0.5-2.1-0.8-3.2-1
	c-0.7-0.1-1.5-0.2-2.4-0.4s-1.7-0.2-2.7-0.3c-0.9-0.1-1.8-0.1-2.6,0c-0.8,0-1.5,0.2-2.2,0.4c0.5,0.8,1.2,1.4,2.1,1.6
	c1.1,0.4,2,0.8,2.8,1.1c1.2,0.5,2.3,1,3.5,1.5s2.3,0.9,3.5,1.3c2,0.8,4.2,1.5,6.5,2.2C922.1,165.2,924,166.1,925.8,167.3z"/>
<path class="st0" d="M948.4,153.4c0.6-0.1,1.3,0.3,1.4,0.9c0,0,0,0.1,0,0.1c0.2,0.8,0.2,1.7,0.1,2.5c-0.1,0.9-0.3,1.9-0.6,2.8
	c-0.3,0.9-0.5,1.5-0.5,1.7c-0.4,1.3-0.9,2.5-1.5,3.7c-0.7,1.4-1.6,2.6-2.6,3.7c-1.1,1.2-2.3,2.1-3.7,2.9c-1.5,0.8-3.3,1.2-5,1.1
	c-1.4,0.1-2.7-0.3-3.9-1.1c-1-0.7-1.8-1.6-2.4-2.7c-0.6-1.1-1-2.2-1.2-3.4c-0.2-1.1-0.2-2.1-0.1-3.2c0.2-1,0.4-1.9,0.7-2.8
	c0.3-0.9,0.7-1.8,1.2-2.6c0.2-0.2,0.4-0.4,0.8-0.8c0.3-0.3,0.7-0.6,1.1-0.8c0.3-0.2,0.7-0.2,1.1-0.2c0.3,0.1,0.5,0.4,0.5,0.9
	c0.1,0.6-0.2,1.2-0.6,1.6c-0.5,0.5-0.9,1-1.3,1.5c-0.2,0.5-0.5,1.1-0.6,1.6c-0.2,0.6-0.4,1.1-0.5,1.7c-0.3,1.9,0,3.9,0.9,5.7
	c0.4,0.8,1.1,1.5,1.8,2.1c0.9,0.6,1.9,0.9,3,0.8c1.2-0.1,2.4-0.4,3.5-1c1-0.6,2-1.3,2.8-2.1c0.8-0.8,1.4-1.7,2-2.7
	c0.5-0.9,0.9-1.8,1.3-2.7c0.3-0.8,0.6-1.6,0.8-2.5c0.2-0.8,0.4-1.7,0.5-2.5c-0.1-0.3-0.2-0.7-0.2-1c-0.1-0.4-0.1-0.9-0.1-1.3
	c0-0.4,0.1-0.8,0.3-1.2C947.5,153.5,948,153.3,948.4,153.4z"/>
<path class="st0" d="M958.6,130.5c0.2,3.6,0.2,7.2,0,10.9c-0.2,3.6-0.5,7.2-0.8,10.8s-0.6,7.2-0.9,10.9s-0.5,7.2-0.5,10.8
	c0,1.4,0.1,2.9,0.2,4.4c0.1,1.5,0.3,2.9,0.7,4.4c0.1,0.8,0.3,1.5,0.7,2.1c0.4,0.7,0.5,1.4,0.2,2.1c-0.2,0.7-0.7,0.9-1.2,0.7
	c-0.6-0.2-1.1-0.6-1.5-1.1c-0.2-0.4-0.4-0.9-0.4-1.4c0-0.5-0.1-1-0.1-1.5c-0.2-1.1-0.3-2.1-0.4-3.2c-0.1-1.1-0.2-2.2-0.2-3.3
	c-0.2-5.3-0.1-10.6,0.4-15.9c0.5-5.3,1-10.6,1.4-15.9c0.2-2.7,0.3-5.3,0.4-8c0.1-2.6,0.1-5.3-0.2-7.9c-0.1-0.7-0.2-1.5-0.2-2.3
	c-0.1-0.9-0.2-1.7-0.5-2.5c-0.2-0.6-0.5-1.2-0.9-1.7c-0.4-0.5-0.7-1.1-0.6-1.8c0-0.4,0.2-0.7,0.5-0.8c0.3-0.2,0.7-0.3,1.1-0.2
	c0.8,0.3,1.5,1,1.8,1.8c0.4,1,0.7,2,0.8,3c0.2,1.1,0.2,2.1,0.2,3.2L958.6,130.5z"/>
<path class="st0" d="M989,159.5c0.7,0.5,0.8,0.9,0.2,1.4c-0.7,0.5-1.5,0.8-2.3,1.1c-1,0.3-1.9,0.5-2.9,0.6c-1,0.1-1.5,0.2-1.7,0.2
	c-3.4,0.4-6.8,0.4-10.1,0v5.2c0,1.7,0,3.4,0.1,5.2c0.4,0.6,1.1,1.5,2.1,2.9c1,1.3,1.8,2.8,2.6,4.3c0.7,1.3,1.2,2.8,1.5,4.3
	c0.4,1.1-0.1,2.3-1.1,2.8c-0.9,0.5-2,0.6-2.9,0.2c-0.9-0.6-1.6-1.3-2-2.3c-0.6-1.2-1-2.5-1.3-3.8c-0.3-1.5-0.5-2.9-0.7-4.3
	s-0.3-2.6-0.4-3.8s-0.1-2-0.1-2.4c-1.1-1.2-2.2-2.4-3.2-3.6c-1-1.2-2.1-2.3-3.3-3.4c-0.4-0.3-0.7-0.6-1.1-0.8
	c-0.5-0.3-1-0.7-1.4-1.1c-0.4-0.3-0.7-0.7-0.9-1.2c-0.2-0.4-0.1-0.9,0.3-1.1c0.2-0.5,0.6-0.7,1.5-0.7c1,0.1,1.9,0.2,2.8,0.4
	c1.1,0.2,2.1,0.5,3,0.8c1,0.3,1.6,0.4,2,0.5c-0.1-6.3,0-12.6,0.2-18.8s0.2-12.5,0.1-18.8c0-0.5,0-1.1-0.1-1.6
	c-0.1-0.5-0.1-1.1-0.1-1.6c0-0.5,0.1-1,0.4-1.4c0.2-0.3,0.6-0.5,0.9-0.5c0.4,0,0.7,0.2,1,0.5c0.3,0.4,0.5,0.9,0.5,1.4
	c0.2,2.2,0.2,4.3,0.1,6.5c-0.1,2.2-0.2,4.3-0.2,6.4c0,4.8,0,9.5-0.1,14.2c0,4.7-0.1,9.3-0.1,14c1.7,0.2,3.3,0.3,5.1,0.4
	c1.8,0.1,3.5-0.1,5.3-0.4c0.5,0,1-0.1,1.5-0.4l1.8-0.7c0.5-0.2,1.1-0.4,1.7-0.5C988,159.2,988.5,159.3,989,159.5L989,159.5z
	 M972.4,174.2c0.1,0.5,0.2,1.4,0.2,2.9c0.1,1.5,0.3,2.9,0.5,4.4c0.2,1.3,0.7,2.6,1.3,3.8c0.4,0.9,1.4,1.4,2.4,1.1
	c0.9-0.2,1.2-0.8,1-1.9c-0.2-1.2-0.6-2.3-1.2-3.4c-0.6-1.2-1.2-2.4-2-3.5c-0.8-1.1-1.2-1.9-1.5-2.3L972.4,174.2L972.4,174.2z
	 M969.8,168.3c-0.2-0.9-0.2-1.9-0.2-2.9v-2.9l-2.3-0.5l-3.3-0.4c1,1.4,1.9,2.7,2.9,4s2,2.6,3,3.9L969.8,168.3z"/>
<path class="st0" d="M1002.9,143.5c0.1,0.6-0.2,1.3-0.7,1.6c-0.6,0.5-1.3,1-2,1.4c-0.8,0.4-1.6,0.8-2.4,1.1l-1.9,0.8
	c-2.3,1-4.7,1.9-7.1,2.6c-2.5,0.7-5,1.2-7.6,1.4c-0.5,0-1.3,0-2.3,0c-0.9,0-1.9,0-2.8-0.1c-0.8-0.1-1.5-0.3-2.2-0.7
	c-0.5-0.3-0.7-1-0.5-1.6c0.3-0.5,0.7-1,1.2-1.3c0.7-0.4,1.3-0.7,2.1-0.9c0.8-0.3,1.5-0.5,2.3-0.7s1.4-0.4,2-0.5c2-0.5,4.1-0.8,6.1-1
	c2-0.2,4.1-0.1,6.1,0.2c-1.3,0.1-2.8,0.2-4.5,0.4c-1.7,0.2-3.3,0.4-5,0.8c-1.6,0.3-3.1,0.8-4.6,1.4c-1.3,0.5-2.5,1.2-3.5,2.1
	c0.9,0.4,1.8,0.7,2.8,0.6c1.2,0,2.3-0.1,3.5-0.3c1.2-0.2,2.4-0.5,3.5-0.8s2-0.6,2.8-0.8c2-0.7,4.1-1.4,6.3-2.3c2-0.7,4-1.8,5.7-3.1
	c-2.7-0.5-5.4-0.5-8.1,0c-2.7,0.5-5.3,1.1-7.8,1.8c-0.6,0.1-1.3,0.2-1.9,0.1c-0.8-0.1-1.1-0.4-0.8-1c0.3-0.7,1-1.2,1.7-1.3
	c0.9-0.2,1.7-0.4,2.4-0.5c1.3-0.2,2.5-0.4,3.7-0.6s2.4-0.4,3.7-0.5c0.5-0.1,1.4-0.1,2.5-0.2s2.2-0.1,3.3-0.1c1,0,2,0.2,2.9,0.5
	C1002.5,142.3,1002.9,142.8,1002.9,143.5L1002.9,143.5z M993.3,166.3c0.2,0.5,0.5,1,0.8,1.6c0.3,0.5,0.2,1.2-0.2,1.6
	c-0.2,0.3-0.4,0.5-0.8,0.5c-0.4,0.1-0.8,0-1.1-0.3c-0.7-0.4-1.1-1.2-1.1-2c0-0.7-0.1-1.5-0.2-2.2c-0.6-1.8-0.9-3.7-1-5.6
	c0.2-0.7,0.3-1.4,0.3-2.1c0.1-0.8,0.5-1.5,1.2-1.9c0.1-0.3,0.4-0.5,0.7-0.5c0.4-0.1,0.8,0,1.1,0.2c0.3,0.2,0.5,0.4,0.3,0.8
	c0,0.8-0.2,1.5-0.7,2.2c-0.5,0.7-0.7,1.5-0.7,2.3C992,162.8,992.4,164.6,993.3,166.3L993.3,166.3z"/>
<path class="st0" d="M1039.5,168.6c-1.7,1-3.6,1.7-5.6,2.1c-2.1,0.5-4.4,0.5-6.5,0c-1.3-0.3-2.5-1-3.4-2c-0.8-0.9-1.4-2-1.7-3.1
	c-0.2-0.8-0.3-1.5-0.4-2.3c-0.1-0.8-0.4-1.7-0.9-2.3c-0.5-0.7-1.5-1-2.3-0.6c-1,0.3-2,0.7-2.9,1.3c-1,0.6-1.9,1.3-2.8,2
	c-0.9,0.7-1.5,1.2-1.9,1.5c-0.6,0.5-1.2,1-1.8,1.5c-0.7,0.7-1.4,1.3-2.2,1.9c-0.8,0.6-1.6,1.1-2.5,1.4c-0.8,0.3-1.7,0.4-2.6,0.2
	c-1-0.3-1.9-0.9-2.4-1.9c-0.5-0.9-0.7-1.9-0.8-2.9c0-1,0.1-2,0.3-3c0.1-0.8,0.4-1.6,0.6-2.3c0.3-0.7,0.6-1.3,0.9-1.9
	c0.6-1.1,1.2-2.1,2-3.1c0.7-0.9,1.5-1.7,2.4-2.3c0.7-0.6,1.7-0.5,2.3,0.2c0,0,0,0,0,0c0.2,0.3,0.2,0.8-0.1,1.1
	c-0.4,0.5-0.8,0.9-1.2,1.4c-0.5,0.5-1,1-1.5,1.4c-0.4,0.3-0.8,0.7-1.1,1.1c-0.4,0.7-0.8,1.4-1.1,2.2c-0.4,0.9-0.7,1.8-0.8,2.7
	c-0.2,0.9-0.2,1.8-0.1,2.7c0.1,0.9,0.5,1.8,1,2.5c0.8-0.2,1.6-0.6,2.3-1c0.7-0.4,1.5-1,2.1-1.5c0.7-0.5,1.3-1.1,1.9-1.6
	c0.6-0.5,1.2-1,1.8-1.4c0.6-0.4,1.2-0.9,1.9-1.4c0.7-0.6,1.4-1.1,2.2-1.5c0.8-0.5,1.6-0.8,2.5-1.1c0.9-0.3,1.8-0.4,2.7-0.4
	c1.2,0,2.3,0.6,3,1.6c0.6,0.9,1,1.9,1.3,3c0.3,1.1,0.6,2.2,0.9,3.3c0.2,1.1,0.9,2,1.8,2.6c0.8,0.4,1.7,0.7,2.6,0.8
	c0.9,0.1,1.7,0.1,2.6,0c0.9-0.1,1.7-0.2,2.6-0.3c0.8-0.1,1.7-0.2,2.5-0.3L1039.5,168.6z"/>
<path class="st0" d="M1055.2,195c0.2,0.9,0.3,2.1,0.6,3.6c0.2,1.5,0.4,3,0.5,4.5c0.1,1.6,0,3.2-0.1,4.8c-0.1,1.5-0.5,3-1.1,4.4
	c-0.6,1.3-1.5,2.5-2.7,3.4c-1.4,1-3.1,1.5-4.8,1.6c-1.8,0.2-3.6,0-5.3-0.6c-1.7-0.6-3.3-1.3-4.8-2.3c-1.5-0.9-2.8-2-4.1-3.3
	c-1.2-1.2-2.3-2.3-3.1-3.3c-2.2-2.5-4.1-5.4-5.6-8.4c-1.4-2.9-2.3-6-2.7-9.2c-0.2-2.7,0.2-5.5,1.3-8c1.3-2.8,3.6-5,6.5-6.1
	c-1.7,1.1-3.1,2.6-4.1,4.3c-0.9,1.5-1.5,3.2-1.7,5c-0.2,1.8-0.2,3.5,0.1,5.3c0.3,1.8,0.8,3.5,1.4,5.2c2,5.4,5.3,10.3,9.7,14.2
	l2.5,1.9c1,0.7,2,1.4,3.1,2c1.1,0.6,2.3,1,3.5,1.3c1.2,0.3,2.4,0.3,3.6-0.1c1.7-0.3,3.1-1.3,4-2.7c0.7-1.3,1.1-2.6,1.4-4
	c0.5-2.6,0.5-5.3,0.2-8c-0.3-2.7-0.7-5.3-1.2-7.9c-1-5.6-2.1-11.1-3.3-16.5c-1.2-5.4-2-11-2.1-16.6c-0.8,0.8-1.7,1.5-2.7,2.2
	c-1.2,0.8-2.5,1.4-3.8,1.8c-1.3,0.4-2.7,0.6-4.1,0.6c-1.3,0-2.4-0.7-3.2-1.7c-0.6-0.6-0.9-1.5-0.7-2.4c0.3-0.8,0.8-1.5,1.5-2
	c0.8-0.6,1.7-1.1,2.7-1.5c1-0.4,2-0.7,3-0.9c1.2-0.1,2.4-0.2,3.7-0.3c1.2-0.1,2.5,0,3.7,0.3c0.1-0.3,0.2-0.6,0.2-0.9
	c0-0.5,0.1-0.9,0.3-1.4c0.1-0.4,0.3-0.7,0.7-1c0.3-0.2,0.7-0.1,1.2,0.2c0.6,0.5,0.9,1.3,0.6,2c-0.2,0.8-0.4,1.5-0.6,2.1
	c-0.2,1.9-0.3,3.8-0.1,5.7c0.2,1.9,0.4,3.8,0.8,5.6c0.6,4.6,1.5,9.1,2.5,13.6C1053.6,185.9,1054.5,190.5,1055.2,195L1055.2,195z
	 M1042.5,160.6c1.3-0.8,2.5-1.8,3.5-3c-1-0.2-2-0.3-3-0.4c-1.2-0.1-2.4,0-3.6,0.1c-1.1,0.1-2.1,0.4-3.1,0.9
	c-0.8,0.4-1.3,1.2-1.3,2.1c-0.2,0.3,0,0.7,0.5,1.2c0.4,0.4,1,0.7,1.5,0.7c0.7,0,1.3,0,1.9-0.2c0.7-0.2,1.3-0.4,1.9-0.6
	C1041.4,161.2,1042,160.9,1042.5,160.6z"/>
<path class="st0" d="M720.1,166.2c0.4-0.3,1-0.5,1.5-0.5c0.6,0,0.7,0.4,0.5,1.2c-0.2,0.5-0.6,0.9-1.1,1.2c-0.5,0.3-1,0.6-1.5,0.8
	c-1.9,1.1-4,2-6.2,2.6c-1.3,0.3-2.6,0.5-3.9,0.6c-1.3,0.1-2.6,0-3.9-0.2c-0.4-0.1-1-0.2-1.5-0.3c-0.6-0.1-1.1-0.3-1.7-0.6
	c-0.5-0.2-1-0.6-1.4-1c-0.4-0.4-0.6-0.9-0.7-1.4c-0.2-0.8,0-1.7,0.7-2.3c0.7-0.5,1.5-0.9,2.4-1c1-0.2,2-0.2,3-0.2
	c0.8,0,1.6,0.1,2.4,0.3c0.2,0.1,0.8,0.3,1.7,0.6s1.9,0.7,2.8,1.1s1.9,0.7,2.7,0.9s1.3,0.3,1.4,0.1c0.5-0.4,0.8-1.1,0.7-1.7
	c-0.1-0.8-0.3-1.6-0.6-2.3c-0.3-0.8-0.7-1.6-1.2-2.3c-0.3-0.5-0.7-1-1.2-1.5c-0.6-0.6-1.4-1-2.2-1.2c-0.9-0.3-1.8-0.4-2.7-0.3
	c-0.9,0-1.8,0.2-2.7,0.4c-0.8,0.2-1.6,0.6-2.3,1c-0.5,0.3-0.9,0.7-1.3,1.1c-0.4,0.4-0.8,0.7-1.4,0.8c-0.5,0.1-0.9,0.1-1-0.2
	c-0.1-0.3,0-0.6,0.1-0.8c0.1-0.4,0.3-0.7,0.6-1c0.2-0.2,0.4-0.5,0.6-0.6c1.1-0.8,2.4-1.4,3.8-1.7c1.4-0.4,2.8-0.5,4.3-0.5
	c1.2,0,2.4,0.3,3.5,0.9c1,0.5,2,1.2,2.7,2.1c0.7,0.9,1.3,1.9,1.7,3c0.4,1.2,0.6,2.4,0.5,3.6l0.9-0.8L720.1,166.2z M710.1,170.4
	c0.9-0.1,1.8-0.3,2.7-0.5c0.8-0.2,1.6-0.4,2.4-0.8c-1.3-0.4-2.5-0.8-3.8-1.3c-1.2-0.5-2.5-0.9-3.8-1.2c-0.4-0.1-0.9-0.1-1.4-0.1
	c-0.7,0-1.4,0-2.2,0.1c-0.7,0.1-1.3,0.2-1.9,0.5c-0.5,0.2-0.7,0.6-0.6,1.1c0,0.6,0.4,1.1,1.2,1.4c0.9,0.3,1.7,0.6,2.7,0.7
	c1,0.1,1.9,0.2,2.9,0.2C709.1,170.4,709.8,170.4,710.1,170.4L710.1,170.4z M753.5,162.9c-1,1.2-2.2,2.3-3.4,3.1
	c-1.3,0.9-2.8,1.4-4.4,1.4c-1,0-2-0.4-2.7-1.1c-0.7-0.7-1.3-1.5-1.7-2.4c-0.3-0.6-0.5-1.3-0.7-2c-0.2-0.7-0.5-1.4-1-1.9
	c-0.4-0.5-1.1-0.5-1.6-0.1c0,0,0,0,0,0c-0.7,0.5-1.3,1.1-1.8,1.8c-0.6,0.8-1.1,1.6-1.6,2.4c-0.5,0.9-0.8,1.4-1,1.8
	c-0.3,0.6-0.7,1.2-1,1.8c-0.4,0.8-0.8,1.5-1.2,2.2c-0.4,0.7-0.9,1.3-1.5,1.8c-0.5,0.5-1.1,0.7-1.7,0.7c-0.8,0-1.5-0.5-2-1.2
	c-0.5-0.7-0.8-1.6-1-2.4c-0.2-0.9-0.3-1.8-0.3-2.8c0-0.7,0-1.5,0-2.2c0.1-0.7,0.2-1.3,0.3-1.9c0.2-1.1,0.5-2.2,0.9-3.2
	c0.3-0.9,0.7-1.8,1.3-2.7c0.2-0.5,0.8-0.7,1.3-0.5c0.1,0.1,0.2,0.1,0.3,0.2c0.2,0.3,0.3,0.7,0.1,1c-0.2,0.5-0.4,1-0.6,1.5
	c-0.2,0.5-0.5,1.1-0.8,1.6c-0.3,0.4-0.4,0.8-0.5,1.2c-0.2,0.7-0.3,1.5-0.4,2.2c-0.1,0.9-0.2,1.8-0.1,2.6c0,0.9,0.2,1.7,0.4,2.6
	c0.2,0.8,0.6,1.5,1.1,2.1c0.5-0.4,1-0.9,1.4-1.4c0.4-0.6,0.8-1.2,1.2-1.8c0.4-0.6,0.7-1.3,1-1.9c0.3-0.6,0.6-1.2,1-1.7
	c0.3-0.5,0.7-1.1,1-1.7c0.4-0.6,0.8-1.3,1.3-1.9c0.4-0.6,0.9-1.1,1.5-1.6c0.5-0.4,1.1-0.7,1.8-0.9c0.9-0.2,1.8,0.1,2.3,0.8
	c0.6,0.7,1.1,1.6,1.4,2.4l1.2,2.8c0.3,0.8,0.9,1.5,1.7,1.9c0.6,0.2,1.3,0.3,1.9,0.2c0.6-0.1,1.2-0.3,1.8-0.6
	c0.6-0.3,1.2-0.6,1.7-0.9s1.1-0.6,1.7-0.8L753.5,162.9L753.5,162.9z M787.8,165.2l-1.8,0.5c-1.2,0.4-2.3,0.9-3.5,1.4
	s-2.4,0.9-3.6,1.4l-3.2,1c-1,0.3-2.1,0.6-3.2,0.8c-0.7-1.5-1.1-3.2-1.3-4.9c-0.2-1.8-0.3-3.5-0.3-5.1c0-2.4,0-4.9,0-7.3
	s0.1-4.9,0.1-7.4c0.1-2,0.2-4,0.3-6.1c0.1-2-0.1-4-0.6-6c0-0.4-0.2-0.8-0.4-1.1c-0.2-0.2-0.4-0.3-0.7-0.3c-0.3,0.1-0.5,0.3-0.7,0.5
	c-0.2,0.3-0.3,0.8-0.2,1.2c0.2,0.9,0.3,1.9,0.5,2.8c0.2,1,0.3,1.9,0.3,2.9c0.1,2.2,0.1,4.4,0,6.7c0,2.2-0.1,4.5-0.1,6.7s0,4.5,0,6.7
	c0,2.2,0.2,4.5,0.5,6.7l0.6,3.6c-1.6-1.3-3.4-2.4-5.3-3.3c-1.9-0.9-3.9-1.5-6-1.9c-0.4-0.1-1-0.1-1.8-0.1c-0.8,0-1.5,0-2.2,0.2
	c-0.7,0.1-1.3,0.4-1.8,0.9c-0.5,0.5-0.6,1.2-0.4,1.8c0.2,0.7,0.5,1.4,1,2c0.5,0.6,1.1,1,1.7,1.4c0.7,0.4,1.4,0.7,2.1,1
	c0.7,0.2,1.4,0.4,2.1,0.5c1.7,0.4,3.5,0.6,5.2,0.5c1.8-0.1,3.5-0.3,5.2-0.6c0.3,0.3,0.7,0.6,1,0.9c0.3,0.3,0.8,0.4,1.2,0.1
	c0.3-0.1,0.4-0.4,0.5-0.7c0.1-0.3,0.1-0.6,0-0.9c5.2-1.4,10.2-3.6,14.7-6.6L787.8,165.2z M765.1,171.1c-0.7,0-1.5,0-2.6-0.1
	c-1.1-0.1-2.2-0.3-3.2-0.5c-1-0.3-2-0.6-2.9-1.2c-0.8-0.4-1.3-1.2-1.4-2.1c0-0.7,0.5-1,1.4-1c1.1,0,2.2,0.2,3.2,0.4
	c1.2,0.2,2.3,0.6,3.4,1l2,0.8c0.7,0.3,1.4,0.7,2.1,1.1c0.7,0.4,1.3,0.8,1.9,1.3C767.7,171,766.4,171.1,765.1,171.1L765.1,171.1z"/>
<ellipse class="st0" cx="82.2" cy="82.4" rx="81.6" ry="81.8"/>
<path class="st1" d="M86.2,49.5l-3.5-0.8l-2.2,1l-13.8-1.8l-1.8,1.5l-1.8,3.9l-2.4,0.9l0.2,1.7l-3.2,4.5l-1.9,1.7l0.6,0.7l-6,6.4
	l-4.1,2.8l-0.7,3l-3,0.8l-0.6,1l8.9,1.6l15.1,0.7l2.9,1.9l1.7,0.4l-0.5-2.3l9.6-0.3l3.8,0.4l6.6-1.5l10.3-1.7l9.3-3l5-4.1l-1.4-1.4
	l1.3-0.7l1.5-1.3l-4.3-4.8l-4.7-2.3l-3.2-1.7l-3.8-0.6l-4.4-2.8l-6.7-2.2l-1.1,0.2L86.2,49.5z M82,0c45.3,0,82,36.7,82.1,81.9
	c0,14.9-4.1,29.6-11.8,42.4l-8.8-4.6l-6-1.4l-7.6-6.9l-14.7-5.3l-5.7-1.9l-3.4-3.1l-2.7-0.3l-1.4-0.8l-4.4-0.7l-6.6-4.4l-17.5-6.7
	l-5.5-3.1l0.7-0.8h8.6l3,0.2l3.7-1.2l1.4,1l6.3-1.2l4.8,0.2l3.1-2l3.6,0.4h3.9l3.4-2.9l6.4-1.6l3.5,1.1l5.7-1.4l0.1-0.5l10.1-6.5
	l1.8-3.9l-0.8-0.1l-1.6-1l0.7-1.5l-2.7-0.2l-1.4-1.2l0.3-1l-3.4-4.7l-4.1-1.6l-6.3-3.2l-8-1.6l-3.5-1.4l-13-4.2l-13.5-2.2l-1.5,0.1
	l-5.4-0.8l-9.7-2l-2.1,0.6l-12.1-1H38.9l-3.4,0.7l-0.6,1.5l-1.4-0.9l-5.5-1l-1.1,0.8l-4.9-0.7l-8.8,1l-2.2,0.6
	C25.5,15.7,52.7,0,82,0z M149.9,128.2l-10.2-4l-3.5-0.9l-1.3-1.5l-2.8-0.2l-1.2,0.2l2.3,1.2l-0.7,1.4l2.3,1.7l-0.1,1l-1.4,0.3
	l-11.9-5.8l-1.3-1.4l0.5-0.4l0.9-0.3l1.7,0.4l3.8,2.2l-0.7-2.3l-2.6-2.9l-4.4-1l-1-2l-6.5-2.3l-0.9-0.7l-2.3-0.6l-0.6,1l0.6,0.6
	l4.4,1.2l2,1.6l7.3,3.4l-0.1,0.6l-2.4,0.5l-10.6-2.2l-5.4-4.8l-10.8-4.4l-5.3-0.8l-3.8-2.2l-8.7-3.9l-4.6-1.7l-8.8-3.3l-2.9-1.3
	l-12.6-4.4l-5.3-0.8l-1.4-0.9l-5.1,0.3l-3.7,3.8l-8.3,10.7l-1.6,3.2l-3.6,6.2l-5.2,10.4H11c22.7,39.2,72.9,52.5,112.1,29.8
	c9.3-5.4,17.5-12.6,24-21.1l-8.8-3.3l-3.6-0.6l0.7-1.3l1.7,0.4l-0.5-1.1l1.2-0.4l10.8,4.3C149,129.3,149.4,128.7,149.9,128.2
	L149.9,128.2z M0.5,91.3h0.6l3.5-2.8l2.1-1.1l5.4-1.1l2,1.2l3-1.5l0.4-2.5l-0.8-0.8l-3.9-1.5l-0.8-0.8l4.5-3.1l4.9-0.4L25,74
	l8.9-10.5l2.1-2.3l-0.2-1.5l4.1-4.3l1.8-5.9L39.9,49l-1.4-1l-6.2-2.3l-12-0.8l-8.7,2.7l-3,2L6,51C2,60.8,0,71.4,0,82
	C0,85.1,0.2,88.2,0.5,91.3z"/>
</svg>
